<svg id="visual" viewBox="0 0 900 600" width="900" height="600" xmlns="http://www.w3.org/2000/svg" xmlns:xlink="http://www.w3.org/1999/xlink" version="1.1"><path d="M0 248L75 248L75 261L150 261L150 272L225 272L225 242L300 242L300 262L375 262L375 294L450 294L450 279L525 279L525 245L600 245L600 248L675 248L675 270L750 270L750 264L825 264L825 256L900 256L900 286L900 0L900 0L825 0L825 0L750 0L750 0L675 0L675 0L600 0L600 0L525 0L525 0L450 0L450 0L375 0L375 0L300 0L300 0L225 0L225 0L150 0L150 0L75 0L75 0L0 0Z" fill="#af55ff"></path><path d="M0 229L75 229L75 201L150 201L150 241L225 241L225 218L300 218L300 241L375 241L375 205L450 205L450 224L525 224L525 203L600 203L600 245L675 245L675 229L750 229L750 218L825 218L825 240L900 240L900 206L900 0L900 0L825 0L825 0L750 0L750 0L675 0L675 0L600 0L600 0L525 0L525 0L450 0L450 0L375 0L375 0L300 0L300 0L225 0L225 0L150 0L150 0L75 0L75 0L0 0Z" fill="#8e50d9"></path><path d="M0 171L75 171L75 195L150 195L150 177L225 177L225 163L300 163L300 164L375 164L375 170L450 170L450 186L525 186L525 167L600 167L600 164L675 164L675 175L750 175L750 178L825 178L825 187L900 187L900 168L900 0L900 0L825 0L825 0L750 0L750 0L675 0L675 0L600 0L600 0L525 0L525 0L450 0L450 0L375 0L375 0L300 0L300 0L225 0L225 0L150 0L150 0L75 0L75 0L0 0Z" fill="#7149b2"></path><path d="M0 137L75 137L75 152L150 152L150 123L225 123L225 155L300 155L300 149L375 149L375 126L450 126L450 146L525 146L525 135L600 135L600 150L675 150L675 123L750 123L750 119L825 119L825 122L900 122L900 127L900 0L900 0L825 0L825 0L750 0L750 0L675 0L675 0L600 0L600 0L525 0L525 0L450 0L450 0L375 0L375 0L300 0L300 0L225 0L225 0L150 0L150 0L75 0L75 0L0 0Z" fill="#58408c"></path><path d="M0 93L75 93L75 102L150 102L150 88L225 88L225 89L300 89L300 98L375 98L375 98L450 98L450 78L525 78L525 96L600 96L600 84L675 84L675 84L750 84L750 103L825 103L825 98L900 98L900 107L900 0L900 0L825 0L825 0L750 0L750 0L675 0L675 0L600 0L600 0L525 0L525 0L450 0L450 0L375 0L375 0L300 0L300 0L225 0L225 0L150 0L150 0L75 0L75 0L0 0Z" fill="#433666"></path><path d="M0 57L75 57L75 54L150 54L150 55L225 55L225 40L300 40L300 55L375 55L375 53L450 53L450 62L525 62L525 41L600 41L600 58L675 58L675 51L750 51L750 64L825 64L825 56L900 56L900 46L900 0L900 0L825 0L825 0L750 0L750 0L675 0L675 0L600 0L600 0L525 0L525 0L450 0L450 0L375 0L375 0L300 0L300 0L225 0L225 0L150 0L150 0L75 0L75 0L0 0Z" fill="#302b41"></path></svg>