<svg id="visual" viewBox="0 0 900 900" width="900" height="900" xmlns="http://www.w3.org/2000/svg" xmlns:xlink="http://www.w3.org/1999/xlink" version="1.1"><path d="M0 100L150 100L150 136L300 136L300 100L450 100L450 127L600 127L600 154L750 154L750 100L900 100L900 91L900 0L900 0L750 0L750 0L600 0L600 0L450 0L450 0L300 0L300 0L150 0L150 0L0 0Z" fill="#302b41"></path><path d="M0 388L150 388L150 361L300 361L300 388L450 388L450 325L600 325L600 271L750 271L750 397L900 397L900 343L900 89L900 98L750 98L750 152L600 152L600 125L450 125L450 98L300 98L300 134L150 134L150 98L0 98Z" fill="#674991"></path><path d="M0 442L150 442L150 460L300 460L300 451L450 451L450 424L600 424L600 334L750 334L750 442L900 442L900 442L900 341L900 395L750 395L750 269L600 269L600 323L450 323L450 386L300 386L300 359L150 359L150 386L0 386Z" fill="#b263e0"></path><path d="M0 523L150 523L150 541L300 541L300 505L450 505L450 532L600 532L600 388L750 388L750 523L900 523L900 505L900 440L900 440L750 440L750 332L600 332L600 422L450 422L450 449L300 449L300 458L150 458L150 440L0 440Z" fill="#d56bff"></path><path d="M0 685L150 685L150 730L300 730L300 721L450 721L450 766L600 766L600 640L750 640L750 712L900 712L900 667L900 503L900 521L750 521L750 386L600 386L600 530L450 530L450 503L300 503L300 539L150 539L150 521L0 521Z" fill="#b263e0"></path><path d="M0 820L150 820L150 829L300 829L300 811L450 811L450 847L600 847L600 820L750 820L750 847L900 847L900 811L900 665L900 710L750 710L750 638L600 638L600 764L450 764L450 719L300 719L300 728L150 728L150 683L0 683Z" fill="#674991"></path><path d="M0 901L150 901L150 901L300 901L300 901L450 901L450 901L600 901L600 901L750 901L750 901L900 901L900 901L900 809L900 845L750 845L750 818L600 818L600 845L450 845L450 809L300 809L300 827L150 827L150 818L0 818Z" fill="#302b41"></path></svg>